<?xml version="1.0" standalone="no"?>
<!DOCTYPE svg PUBLIC "-//W3C//DTD SVG 20010904//EN"
 "http://www.w3.org/TR/2001/REC-SVG-20010904/DTD/svg10.dtd">
<svg version="1.0" xmlns="http://www.w3.org/2000/svg"
 width="121.000000pt" height="111.000000pt" viewBox="0 0 121.000000 111.000000"
 preserveAspectRatio="xMidYMid meet">

<g transform="translate(0.000000,111.000000) scale(0.100000,-0.100000)"
fill="#000000" stroke="none">
<path d="M478 1062 c-127 -47 -127 -47 -233 -146 -77 -71 -126 -128 -176 -202
-71 -107 -77 -122 -57 -142 27 -27 48 -11 117 91 48 69 102 131 168 193 96 89
100 91 217 133 l119 43 104 -7 104 -7 60 -76 c63 -80 61 -71 43 -174 -8 -49
-102 -123 -227 -179 -62 -28 -106 -54 -113 -66 -8 -17 -15 18 -33 165 -12 103
-27 193 -33 199 -6 7 -18 13 -28 13 -44 0 -44 -11 10 -442 29 -227 57 -419 62
-426 14 -16 43 -15 58 3 9 11 6 58 -14 218 -14 112 -26 212 -26 221 0 10 91
-45 278 -169 153 -102 285 -185 293 -185 20 0 39 20 39 42 0 12 -76 69 -242
180 l-243 162 70 32 c41 18 102 59 146 98 l76 65 12 96 13 96 -56 72 c-30 40
-68 86 -83 104 l-28 32 -135 5 -135 6 -127 -48z"/>
<path d="M310 835 c-10 -11 -2 -95 40 -412 28 -219 56 -404 62 -410 14 -17 43
-16 58 2 10 11 2 95 -40 412 -28 219 -56 404 -62 411 -14 16 -43 15 -58 -3z"/>
</g>
</svg>
