<?xml version="1.0" encoding="UTF-8" standalone="no"?>
<!DOCTYPE svg PUBLIC "-//W3C//DTD SVG 20010904//EN"
              "http://www.w3.org/TR/2001/REC-SVG-20010904/DTD/svg10.dtd">

<svg xmlns="http://www.w3.org/2000/svg"
     width="21.6747mm" height="18.7114mm"
     viewBox="0 0 256 221">
  <path id="Unnamed #1"
        fill="none" stroke="black" stroke-width="1"
        d="M 133.00,209.50
           C 142.25,209.25 143.25,206.25 141.25,202.75
             139.00,203.25 137.75,206.75 132.00,206.00
             131.50,203.25 130.75,184.50 130.75,184.50
             130.75,184.50 145.00,161.75 145.00,161.75
             152.25,161.50 164.25,191.50 166.00,195.00
             166.25,197.00 157.75,203.00 161.00,205.50
             171.25,196.00 174.75,194.75 185.75,191.75
             185.25,190.50 185.25,190.25 185.25,187.00
             179.00,189.25 171.75,198.50 159.75,169.75
             159.75,169.75 169.50,178.25 178.00,179.50
             178.00,179.50 197.00,178.25 207.00,171.25
             204.25,171.00 190.00,170.25 187.75,168.50
             189.25,166.50 189.75,167.00 194.00,165.00
             186.25,163.25 171.75,161.25 159.75,149.75
             159.75,149.25 163.50,147.00 163.50,147.00
             189.00,161.50 205.00,156.50 213.75,155.00
             226.50,148.50 229.50,142.75 237.00,135.00
             230.00,134.75 222.25,138.75 216.75,139.50
             216.00,138.00 215.25,139.25 222.25,131.75
             213.00,131.00 198.00,141.00 178.75,136.50
             178.75,136.50 178.50,135.00 179.75,132.75
             220.25,134.50 229.50,126.00 241.25,119.50
             247.25,116.00 254.25,102.75 255.00,88.75
             251.25,91.75 245.00,96.25 240.00,100.75
             239.00,100.00 241.75,94.50 239.50,92.75
             225.50,105.25 208.25,112.00 189.00,115.75
             189.00,115.75 190.25,112.25 190.25,112.25
             223.00,107.25 243.50,86.75 249.50,72.50
             251.25,61.50 247.75,36.25 244.00,34.50
             241.25,37.75 238.00,63.75 232.25,52.50
             225.25,74.75 201.75,95.75 192.75,98.75
             192.75,98.75 193.50,93.75 193.50,93.75
             204.50,87.50 230.25,63.75 230.75,38.25
             231.25,36.00 222.50,10.50 212.00,2.75
             215.25,55.75 187.50,98.00 173.50,102.00
             171.50,102.50 171.50,111.00 161.00,111.50
             157.75,112.75 146.00,109.00 144.50,81.00
             144.75,69.75 157.25,38.25 129.75,37.75
             99.75,36.25 112.25,69.75 112.50,81.00
             111.00,109.00 99.25,112.75 96.00,111.50
             85.50,111.00 85.50,102.50 83.50,102.00
             69.50,98.00 41.75,55.75 45.00,2.75
             34.50,10.50 25.75,36.00 26.25,38.25
             26.75,63.75 52.50,87.50 63.50,93.75
             63.50,93.75 64.25,98.75 64.25,98.75
             55.25,95.75 31.75,74.75 24.75,52.50
             19.00,63.75 15.75,37.75 13.00,34.50
             9.25,36.25 5.75,61.50 7.50,72.50
             13.50,86.75 34.00,107.25 66.75,112.25
             66.75,112.25 68.00,115.75 68.00,115.75
             48.75,112.00 31.50,105.25 17.50,92.75
             15.25,94.50 18.00,100.00 17.00,100.75
             12.00,96.25 5.75,91.75 2.00,88.75
             2.75,102.75 9.75,116.00 15.75,119.50
             27.50,126.00 36.75,134.50 77.25,132.75
             78.50,135.00 78.25,136.50 78.25,136.50
             59.00,141.00 44.00,131.00 34.75,131.75
             41.75,139.25 41.00,138.00 40.25,139.50
             34.75,138.75 27.00,134.75 20.00,135.00
             27.50,142.75 30.50,148.50 43.25,155.00
             52.00,156.50 68.00,161.50 93.50,147.00
             93.50,147.00 97.25,149.25 97.25,149.75
             85.25,161.25 70.75,163.25 63.00,165.00
             67.25,167.00 67.75,166.50 69.25,168.50
             67.00,170.25 52.75,171.00 50.00,171.25
             60.00,178.25 79.00,179.50 79.00,179.50
             87.50,178.25 97.25,169.75 97.25,169.75
             85.25,198.50 78.00,189.25 71.75,187.00
             71.75,190.25 71.75,190.50 71.25,191.75
             82.25,194.75 85.75,196.00 96.00,205.50
             99.25,203.00 90.75,197.00 91.00,195.00
             92.75,191.50 104.75,161.50 112.00,161.75
             112.00,161.75 126.25,184.50 126.25,184.50
             126.25,184.50 125.50,203.25 125.00,206.00
             119.25,206.75 118.00,203.25 115.75,202.75
             113.75,206.25 114.75,209.25 124.00,209.50
             126.50,211.75 125.25,218.00 129.00,218.50
             130.00,218.50 131.00,218.75 133.00,209.50 Z" />
  <path id="Unnamed #1"
        fill="none" stroke="black" stroke-width="1"
        d="M 113.25,66.50
           C 113.25,66.50 88.75,59.50 88.75,59.50
             88.75,59.50 113.50,53.25 113.50,53.25
             113.50,53.25 113.25,66.50 113.25,66.50 Z" />
</svg>
