<?xml version="1.0" encoding="UTF-8" standalone="no"?>
<!-- Created with Inkscape (http://www.inkscape.org/) -->

<svg
   width="210mm"
   height="297mm"
   viewBox="0 0 210 297"
   version="1.1"
   id="svg1"
   sodipodi:docname="mus.svg"
   inkscape:export-filename="mus.png"
   inkscape:export-xdpi="96"
   inkscape:export-ydpi="96"
   inkscape:version="1.3.1 (91b66b0783, 2023-11-16)"
   xmlns:inkscape="http://www.inkscape.org/namespaces/inkscape"
   xmlns:sodipodi="http://sodipodi.sourceforge.net/DTD/sodipodi-0.dtd"
   xmlns="http://www.w3.org/2000/svg"
   xmlns:svg="http://www.w3.org/2000/svg">
  <sodipodi:namedview
     id="namedview1"
     pagecolor="#ffffff"
     bordercolor="#000000"
     borderopacity="0.25"
     inkscape:showpageshadow="2"
     inkscape:pageopacity="0.0"
     inkscape:pagecheckerboard="0"
     inkscape:deskcolor="#d1d1d1"
     inkscape:document-units="mm"
     inkscape:zoom="0.57103676"
     inkscape:cx="395.77137"
     inkscape:cy="109.45005"
     inkscape:window-width="1600"
     inkscape:window-height="837"
     inkscape:window-x="-8"
     inkscape:window-y="-8"
     inkscape:window-maximized="1"
     inkscape:current-layer="svg1"
     showguides="true" />
  <defs
     id="defs1" />
  <g
     id="layer1"
     transform="matrix(0.22749684,0,0,0.2292065,-14.199909,-27.014988)">
    <ellipse
       style="fill:none;stroke:#000000;stroke-width:0.0905845"
       id="path1"
       cx="96.581444"
       cy="190.41446"
       rx="13.867707"
       ry="14.292495" />
    <ellipse
       style="fill:none;stroke:#000000;stroke-width:0.0905845"
       id="path1-1"
       cx="95.604172"
       cy="161.70937"
       rx="13.867707"
       ry="14.292495" />
    <ellipse
       style="fill:none;stroke:#000000;stroke-width:0.0905845"
       id="path1-9"
       cx="96.320442"
       cy="218.33884"
       rx="13.867707"
       ry="14.292495" />
    <rect
       style="fill:#aa4400;stroke:#000000;stroke-width:0.186664"
       id="rect2"
       width="19.981083"
       height="3.0322063"
       x="110.7197"
       y="188.14778" />
    <rect
       style="fill:#aa4400;stroke:#000000;stroke-width:0.186664"
       id="rect3"
       width="19.663921"
       height="2.6952944"
       x="62.511379"
       y="189.15852" />
    <ellipse
       style="fill:#000000;stroke:#000000;stroke-width:0.186664"
       id="path3"
       cx="96.130348"
       cy="183.09412"
       rx="2.8544402"
       ry="3.0322063" />
    <ellipse
       style="fill:#000000;stroke:#000000;stroke-width:0.186664"
       id="path3-3"
       cx="96.185234"
       cy="193.23001"
       rx="2.8544402"
       ry="3.0322063" />
    <ellipse
       style="fill:#000000;stroke:#000000;stroke-width:0.186664"
       id="path3-4"
       cx="96.185234"
       cy="209.73871"
       rx="2.8544402"
       ry="3.0322063" />
    <ellipse
       style="fill:#000000;stroke:#000000;stroke-width:0.186664"
       id="path3-9"
       cx="100.58476"
       cy="157.44289"
       rx="2.8544402"
       ry="3.0322063" />
    <ellipse
       style="fill:#000000;stroke:#000000;stroke-width:0.186664"
       id="path3-9-3"
       cx="91.063004"
       cy="158.25845"
       rx="2.8544402"
       ry="3.0322063" />
    <ellipse
       style="fill:#000000;stroke:#000000;stroke-width:0.0956585"
       id="path3-9-1"
       cx="91.692101"
       cy="169.03223"
       rx="1.3127888"
       ry="1.7314574" />
    <ellipse
       style="fill:#000000;stroke:#000000;stroke-width:0.0956585"
       id="path3-9-1-8"
       cx="95.238106"
       cy="170.71864"
       rx="1.3127888"
       ry="1.7314574" />
    <ellipse
       style="fill:#000000;stroke:#000000;stroke-width:0.0956585"
       id="path3-9-1-7"
       cx="98.631523"
       cy="171.34183"
       rx="1.3127888"
       ry="1.7314574" />
    <ellipse
       style="fill:#000000;stroke:#000000;stroke-width:0.0956585"
       id="path3-9-1-6"
       cx="101.8915"
       cy="169.70422"
       rx="1.3127888"
       ry="1.7314574" />
    <path
       style="fill:#ff0000;stroke:#000000;stroke-width:0.186664"
       d="m 86.615542,150.75057 c 0,-4.71676 0,-9.43352 0,-14.15029 0,-2.4169 0.203702,-4.6828 1.585801,-6.73824 0.173803,-0.25848 0.42288,-0.44921 0.63432,-0.67382 0.31716,-0.44922 0.650597,-0.88597 0.95148,-1.34765 0.650913,-0.99875 1.178829,-2.09204 1.902961,-3.0322 0.241377,-0.31339 0.681945,-0.38751 0.95148,-0.67383 0.269533,-0.28631 0.364785,-0.72441 0.634319,-1.01073 0.167158,-0.17757 0.467163,-0.15934 0.63432,-0.33692 0.323323,-0.34345 -0.349234,-0.65678 0.31716,-1.01073 0.33685,-0.17891 0.895439,0.0991 1.268639,0 0.64867,-0.17227 1.24105,-0.57338 1.902962,-0.67382 4.244696,-0.64415 -3.479666,1.4369 3.805916,-0.67382 1.06486,-0.30851 2.1245,-0.63997 3.17161,-1.01074 0.78203,-0.27691 1.52373,-1.10107 2.22011,-1.34765 1.71607,-0.60764 5.85362,1.4399 7.29468,2.35839 0.96729,0.61651 0.57505,1.62158 1.26865,2.35837 0.16715,0.17758 0.50319,0.12797 0.63431,0.33692 0.21275,0.339 0.11035,2.14605 0.31716,2.69529 0.0555,0.14747 0.21145,0.22461 0.31716,0.33691 0.21144,0.56152 0.49625,1.09785 0.63433,1.68456 0.0769,0.32686 -0.0522,0.67841 0,1.01074 0.23404,1.49173 0.93204,2.94963 1.26863,4.37985 0.24684,1.04882 -0.16728,2.30289 0,3.36912 0.0717,0.45674 0.2455,0.89091 0.31716,1.34765 0.24704,1.57453 0,3.4481 0,5.05368 0,0.13872 0.084,0.92155 0,1.01073 -0.084,0.0892 -0.82088,0 -0.95147,0 -0.42289,0 -0.96962,0.31764 -1.26865,0 -0.16715,-0.17757 -0.21143,-0.44921 -0.31716,-0.67382 -0.42287,-0.22461 -0.8904,-0.37248 -1.26863,-0.67383 -0.0523,-0.0417 -0.58516,-1.26061 -0.63433,-1.34764 -0.98816,-1.7495 -1.7593,-3.43254 -2.22012,-5.39059 -0.36556,-1.55332 0.47542,-3.53862 0,-5.05368 -0.21143,-0.67383 -0.38599,-1.362 -0.63432,-2.02147 -0.11105,-0.29493 -0.50059,-0.38972 -0.63432,-0.67383 -0.0473,-0.10044 0.0748,-0.2575 0,-0.33691 -0.65621,-0.69708 0.0257,1.06524 -0.63432,-0.33691 -0.0473,-0.10045 0.0748,-0.2575 0,-0.33691 -0.0748,-0.0794 -0.21144,0 -0.31716,0 -0.10572,-0.1123 -0.23422,-0.20477 -0.31716,-0.33691 -0.13113,-0.20894 -0.15,-0.49626 -0.31716,-0.67383 -0.1329,-0.14118 -0.75926,-0.23481 -0.95148,-0.33691 -0.26745,-0.14205 -0.36686,-0.53176 -0.63432,-0.67382 -0.33349,-0.17713 -1.20485,0 -1.5858,0 -0.43023,0 -1.20078,-0.13633 -1.58579,0 -0.31587,0.11184 -3.2984,1.81926 -3.48877,2.02147 -0.16716,0.17757 -0.15,0.49625 -0.31716,0.67382 -0.0748,0.0794 -0.2424,-0.0794 -0.31716,0 -0.18382,0.19527 -0.450491,1.15238 -0.634317,1.34765 -0.15858,0.16846 -0.47574,0.16846 -0.63432,0.33692 -0.136803,0.14531 -1.113908,2.02964 -1.26864,2.35837 -0.234073,0.49731 -0.317159,3.28301 -0.317159,3.70604 0,0.44921 -0.133726,0.92148 0,1.34764 0.04728,0.15068 0.250296,0.19486 0.317159,0.33691 0.153528,0.32618 -0.0161,0.63962 0.317161,1.34765 0.210355,0.44691 -0.150005,1.20652 0,1.68456 0.07475,0.23823 0.242405,0.43559 0.317159,0.67382 0.124149,0.39564 0.02642,2.38645 0.31716,2.6953 0.07476,0.0794 0.242405,-0.0794 0.31716,0 0.07476,0.0794 -0.07475,0.2575 0,0.33691 0.07476,0.0794 0.242405,-0.0794 0.31716,0 0.07476,0.0794 -0.07475,0.2575 0,0.33691 0.656216,0.69709 -0.02565,-1.06524 0.63432,0.33691 0.04728,0.10045 -0.07475,0.25751 0,0.33692 0.07476,0.0794 0.242407,-0.0794 0.317157,0 0.58144,0.61764 0.31716,3.04471 0.31716,4.04294"
       id="path6" />
    <ellipse
       style="fill:#f9f9f9;stroke:#000000;stroke-width:0.186664"
       id="path7"
       cx="117.85581"
       cy="145.86536"
       rx="3.6473403"
       ry="4.2113976" />
  </g>
  <path
     style="fill:#f9f9f9;stroke:#000000;stroke-width:0.105803"
     d="m 6.7235939,26.063172 c -0.71662,-0.24619 -1.6382797,-1.16944 -1.8787997,-1.88203 -0.0972,-0.28786 -0.17666,-0.84176 -0.17666,-1.23089 0,-1.20478 0.69496,-2.30453 1.7878497,-2.82922 0.56456,-0.27104 2.03693,-0.23964 2.61151,0.0557 0.5662,0.29102 1.1192091,0.86982 1.4212991,1.48756 0.34075,0.69683 0.34084,2.0966 1.8e-4,2.74522 -0.7763391,1.47816 -2.3124991,2.1528 -3.7653791,1.65367 z m 1.44106,-4.45493 c 0.2437,-0.22221 0.25407,-0.85436 0.0183,-1.11683 -0.23016,-0.25624 -0.72166,-0.24717 -0.98504,0.0182 -0.25775,0.25969 -0.27638,0.81298 -0.0364,1.08019 0.21736,0.24199 0.74723,0.25174 1.00309,0.0185 z"
     id="path2" />
  <path
     style="fill:#f9f9f9;stroke:#000000;stroke-width:0.105803"
     d="m 6.4656339,19.489092 c -0.61204,-0.29143 -1.1938697,-0.90446 -1.5008797,-1.5814 -0.35076,-0.77337 -0.33257,-1.92649 0.0419,-2.655 0.6042697,-1.1756 1.5685797,-1.80034 2.7710297,-1.79523 0.86892,0.004 1.55231,0.30529 2.18201,0.963 1.4466291,1.51096 1.0322991,4.09014 -0.81171,5.05286 -0.61741,0.32234 -2.02115,0.33059 -2.68234,0.0158 z m 1.68097,-1.6345 c 0.23981,-0.24161 0.28191,-0.82143 0.079,-1.08899 -0.38374,-0.50613 -1.24006,-0.16964 -1.23693,0.48605 0.002,0.38773 0.0724,0.51995 0.36732,0.68844 0.31256,0.17858 0.55442,0.15242 0.79056,-0.0855 z m 0,-2.3364 c 0.3969,-0.39988 0.1975,-1.20537 -0.31623,-1.2774 -0.5439,-0.0763 -0.84326,0.17256 -0.84326,0.70088 0,0.43482 0.30753,0.78892 0.68515,0.78892 0.14494,0 0.35839,-0.0956 0.47434,-0.2124 z"
     id="path4" />
  <path
     style="fill:#f9f9f9;stroke:#000000;stroke-width:0.105803"
     d="m 6.7648439,13.147662 c -1.2811997,-0.36347 -2.3075197,-1.74173 -2.3075197,-3.09878 0,-0.9061696 0.70004,-2.3268796 1.2058697,-2.4472696 0.11943,-0.0284 0.89703,-0.13641 1.72802,-0.23996 1.71832,-0.21414 1.75849,-0.20477 2.43078,0.56667 0.8063591,0.92529 1.0394291,2.3045196 0.5678791,3.3605196 -0.6428991,1.43973 -2.2312991,2.25422 -3.6250291,1.85882 z m 1.69269,-0.54355 c 0.0693,-0.0841 0.11065,-0.2872 0.092,-0.45135 -0.045,-0.39505 -0.46646,-0.48403 -0.59784,-0.12621 -0.0874,0.23816 -0.0889,0.23775 -0.15947,-0.0456 -0.0527,-0.21166 -0.13733,-0.28595 -0.32564,-0.28595 -0.28353,0 -0.43034,0.29113 -0.32132,0.6372 0.069,0.21916 0.57975,0.31271 0.57975,0.1062 0,-0.0584 0.0474,-0.1062 0.1054,-0.1062 0.058,0 0.10541,0.0677 0.10541,0.15045 0,0.13327 0.13369,0.24113 0.32967,0.26597 0.0364,0.005 0.12282,-0.0604 0.19208,-0.14449 z m 0.83125,-0.63839 c 0.0424,-0.37557 -0.24572,-0.65982 -0.47473,-0.46834 -0.14823,0.12395 -0.19241,0.64081 -0.0657,0.76848 0.0411,0.0414 0.17153,0.0613 0.28987,0.0443 0.15082,-0.0218 0.22574,-0.12473 0.25055,-0.34439 z m -2.41237,0.10739 c 0.2084,-0.25299 0.0956,-0.74444 -0.17983,-0.78385 -0.38393,-0.0549 -0.53472,0.61866 -0.1915,0.85545 0.16353,0.11281 0.22997,0.1 0.37133,-0.0716 z m 0.12875,-2.2530896 c 0.24371,-0.22221 0.25407,-0.85437 0.0183,-1.11683 -0.21737,-0.24199 -0.74724,-0.25174 -1.0031,-0.0185 -0.2437,0.2222 -0.25407,0.85436 -0.0183,1.11683 0.21736,0.2419896 0.74724,0.2517396 1.00309,0.0185 z m 2.25145,-0.28591 c 0.0852,-0.12254 0.15488,-0.32519 0.15488,-0.45034 0,-0.34142 -0.39503,-0.78719 -0.69759,-0.78719 -0.30381,0 -0.77882,0.43553 -0.77656,0.71202 0.006,0.75165 0.91137,1.1122396 1.31927,0.52551 z"
     id="path5" />
  <path
     style="fill:#f9f9f9;stroke:#000000;stroke-width:0.105803"
     d="m 12.553973,7.3744324 c 0.0761,-0.0307 0.16701,-0.0269 0.20203,0.008 0.035,0.0353 -0.0272,0.0604 -0.13834,0.0558 -0.1228,-0.005 -0.14778,-0.0303 -0.0637,-0.0642 z"
     id="path8" />
  <path
     style="fill:#f9f9f9;stroke:#000000;stroke-width:0.105803"
     d="m 12.123953,7.0487224 c -0.26731,-0.29884 -0.32273,-0.71297 -0.14244,-1.06424 0.26545,-0.51718 0.73131,-0.59967 1.10759,-0.19613 0.48885,0.52427 0.20277,1.44622 -0.44875,1.44622 -0.19989,0 -0.42151,-0.0798 -0.5164,-0.18585 z"
     id="path9" />
</svg>
